<?xml version="1.0" encoding="utf-8"?>
<!-- Generator: Adobe Illustrator 18.1.0, SVG Export Plug-In . SVG Version: 6.00 Build 0)  -->
<!DOCTYPE svg PUBLIC "-//W3C//DTD SVG 1.1//EN" "http://www.w3.org/Graphics/SVG/1.1/DTD/svg11.dtd">
<svg version="1.1" id="Layer_1" xmlns="http://www.w3.org/2000/svg" xmlns:xlink="http://www.w3.org/1999/xlink" x="0px" y="0px"
	 viewBox="0 0 630 630" enable-background="new 0 0 630 630" xml:space="preserve">
<circle fill="none" stroke="#000000" stroke-width="34" stroke-miterlimit="10" cx="314.2" cy="315.2" r="235"/>
<g>
	<path d="M314.1,462.1c-81.2,0-146.9-65.8-146.9-146.9S233,168.3,314.1,168.3c73.6,0,134.5,53.7,145.3,124.7h22.3
		c-10.9-83-81.9-146.8-167.6-146.8c-93.2,0-169,75.8-169,169c0,93.2,75.8,169,169,169c85.8,0,156.8-64.2,167.6-147.2h-22.3
		C448.9,408,387.9,462.1,314.1,462.1z"/>
	<path d="M314.1,440c-68.9,0-124.9-56-124.9-124.8s56-124.8,124.9-124.8c61.3,0,112.3,44.6,122.9,102.6h22.4
		c-10.7-71-71.7-124.7-145.3-124.7c-81.2,0-146.9,65.8-146.9,146.9S233,462.1,314.1,462.1c73.7,0,134.8-54.1,145.3-125.1h-22.4
		C426.7,396,375.5,440,314.1,440z"/>
</g>
<circle cx="24.5" cy="315.1" r="13.5"/>
<g>
	<circle fill="none" cx="313.3" cy="315.1" r="272.2"/>
	<path d="M36.7,247.6c3.7,1.6,6.4,3.9,8,6.8c1.6,3,2.1,6.2,1.4,9.8c-0.7,3.2-2,5.7-3.9,7.6c-1.9,1.9-3.9,3.2-6,3.8
		c-0.7,0.2-1.3,0.3-2,0.5c-0.6,0.1-1.4,0.2-2.4,0.1c-1.7,0-5-0.5-9.8-1.4c-4.9-0.9-8.1-1.7-9.7-2.2c-1.6-0.6-2.8-1.3-3.8-2.1
		c-1.8-1.3-3.2-3.2-4.3-5.7c-1.1-2.4-1.4-5.2-0.9-8.4c0.8-3.9,2.6-6.9,5.4-8.9c2.8-2,6.1-3,9.7-3l-1.2,6.5c-1.8,0.2-3.4,0.8-4.8,1.9
		c-1.4,1.2-2.3,2.7-2.7,4.7c-0.2,1.5-0.2,2.8,0.2,3.9c0.4,1.2,0.9,2.2,1.7,3c0.8,1,1.8,1.7,3.2,2.2c1.4,0.6,4.2,1.2,8.4,2
		c4.1,0.8,7,1.1,8.5,1.1c1.5,0,2.8-0.3,3.8-0.9c1-0.5,1.8-1.2,2.6-2.2c0.8-0.9,1.4-2.1,1.6-3.6c0.6-3.5-0.8-6.4-4.3-8.8L36.7,247.6z
		"/>
	<path d="M46.3,191.9c-4.4-2.3-7.3-4-8.6-5c-1.3-1.1-2.3-2.1-3-3.1c-1.3-1.8-2.1-4-2.4-6.7c-0.4-2.6,0.2-5.4,1.7-8.3
		c1.6-2.9,3.6-4.9,6-6.2c2.4-1.2,4.7-1.8,6.9-1.7c1.2-0.1,2.7,0.1,4.3,0.6c1.6,0.6,4.6,2,9,4.3c4.3,2.3,7.2,3.9,8.6,4.9
		c1.4,1,2.4,2.1,3,3.2c1.3,1.8,2.1,4,2.4,6.6c0.4,2.7-0.2,5.5-1.7,8.4c-1.6,2.8-3.6,4.9-6,6.1c-2.4,1.3-4.6,1.9-6.9,1.8
		c-0.7,0-1.4-0.1-2-0.1c-0.6-0.1-1.4-0.3-2.3-0.6C53.6,195.6,50.6,194.1,46.3,191.9z M49.2,186.3c3.7,2,6.3,3.2,7.8,3.6
		c1.4,0.5,2.8,0.5,4,0.3c1.1-0.2,2.1-0.6,3.1-1.3c1.1-0.6,1.9-1.6,2.6-2.9c0.7-1.3,1-2.6,1-3.9c0-1.2-0.2-2.2-0.7-3.2
		c-0.4-1.1-1.2-2.2-2.4-3.2c-1.2-0.9-3.6-2.4-7.4-4.4c-3.7-2-6.3-3.2-7.8-3.6c-1.4-0.4-2.7-0.5-3.9-0.2c-1.1,0.1-2.1,0.5-3.1,1.2
		c-1,0.7-1.9,1.7-2.6,3c-0.7,1.3-1,2.6-1,3.8c0,1.2,0.3,2.3,0.7,3.3c0.4,1.1,1.2,2.2,2.4,3.1C43,182.9,45.5,184.4,49.2,186.3z"/>
	<path d="M81.9,100.6l4.3-4.1l27.8,11.9l-10.9-28.1l4.3-4.1L137,107l-4.5,4.3L114,92.1l-0.1,0.1l8,20.8l-3.8,3.6l-20.5-8.8l-0.1,0.1
		l18.4,19.2l-4.5,4.3L81.9,100.6z"/>
	<path d="M165.8,36.1l5.4-2.5l22.4,20.4l-1-30.2l5.4-2.5l17.7,38.9l-5.7,2.6l-11.1-24.2l-0.1,0.1l0.6,22.3l-4.8,2.2l-16.4-15.1
		l-0.1,0l11.1,24.2l-5.7,2.6L165.8,36.1z"/>
	<path d="M265.3,3.4l6.2-0.6l2.8,27.4c0.3,2.9,1.4,5,3.1,6.4c1.7,1.4,3.8,2,6.2,1.8s4.4-1.3,5.8-3c1.4-1.7,2-4,1.7-6.9L288.3,1
		l6.2-0.6l2.9,28.1c0.4,4.5-0.6,8.2-3.1,11.1c-2.5,3-5.8,4.7-10,5.2c-4.1,0.4-7.7-0.6-10.8-3c-3.1-2.3-4.9-5.7-5.4-10.2L265.3,3.4z"
		/>
	<path d="M368.6,10.8l-11.1-2.1l1.1-5.6L387,8.5l-1.1,5.6L374.8,12l-7,36.3l-6.2-1.2L368.6,10.8z"/>
	<path d="M447.4,67.1l-14-7.1l-7.2,7.1l-5.9-3l32.8-31.3l4.7,2.4l-6,44.9l-5.9-3L447.4,67.1z M448.4,61.2l3.1-19.4l-0.1-0.1
		l-13.8,13.9L448.4,61.2z"/>
	<path d="M523.8,80.5l11.4,11.2c2.9,2.9,4.3,5.8,4.3,8.7c0,2.9-1.2,5.6-3.6,8.1c-1.2,1.3-2.7,2.2-4.4,2.7c-0.8,0.2-1.8,0.3-2.9,0.2
		c-1.1-0.1-2.3-0.3-3.5-0.7l-0.1,0.1c1.2,2,1.6,4.1,1.1,6.2c-0.6,2.1-1.6,4-3.2,5.5c-2.6,2.6-5.5,3.9-8.5,3.9
		c-3.1,0.1-5.9-1-8.2-3.3L493.9,111L523.8,80.5z M511.7,101.8l-9,9.2l6.9,6.8c1.7,1.6,3.4,2.3,5,2.2c1.6-0.1,3.1-0.8,4.3-2.1
		c1.2-1.3,1.9-2.7,2-4.4c0.1-1.6-0.7-3.3-2.3-4.9L511.7,101.8z M524.3,88.9l-8.6,8.8l6.5,6.3c1.6,1.6,3.3,2.3,4.9,2.2
		c1.6,0,3-0.7,4.2-1.9c1.2-1.2,1.8-2.7,1.9-4.3c0-1.6-0.8-3.1-2.4-4.8L524.3,88.9z"/>
	<path d="M584.5,154.5l3,5.5l-32.2,17.4l9.6,17.7l-5.4,2.9L547,174.8L584.5,154.5z"/>
	<path d="M619.5,240.1l5.3,25.9l-6,1.2l-4-19.8l-12,2.4l3.4,16.9l-5.6,1.1l-3.4-16.9l-12.3,2.5l4,19.8l-6,1.2l-5.3-25.9L619.5,240.1
		z"/>
</g>
<g>
	<g>
		<path fill="none" d="M-0.2,315.1c0,173.3,140.2,313.5,313.4,313.5s313.4-140.2,313.4-313.5"/>
		<path d="M13.4,361.4c-2.1,3.8-2.8,7.9-1.9,12.4c1.1,5.3,3.6,7.6,7.4,6.9c3.1-0.6,4.7-2.7,4.6-6.4c-0.1-1.7-0.2-3.5-0.3-5.5
			c-0.1-3.6,0.7-6.5,2.4-8.7c1.8-2.3,4.2-3.7,7.2-4.3c3.7-0.7,6.8-0.1,9.6,1.8c2.7,1.8,4.4,4.9,5.3,9.1c0.9,5.1,0.3,9.7-1.8,14
			l-5.9-2.4c1.5-3.5,1.9-7,1.3-10.7c-0.4-1.9-1.2-3.4-2.4-4.5c-1.3-1.1-2.9-1.5-4.9-1.1c-1.2,0.2-2.2,0.9-3,2
			c-0.8,1.1-1.2,2.7-1.2,4.8c0,1.2,0.1,2.7,0.2,4.7c0.2,3.9-0.7,7-2.6,9.3c-1.9,2.2-4.3,3.6-7.3,4.2c-8.1,1.4-13.1-2.6-15-11.9
			c-1.2-6-0.3-11.6,2.7-16.6L13.4,361.4z"/>
		<path d="M59.1,424.3L54.5,414l5.2-2.3l11.8,26.4l-5.2,2.3L61.7,430l-33.8,15l-2.5-5.7L59.1,424.3z"/>
		<path d="M70.4,478.3c4-3,6.7-4.9,8.2-5.7c1.5-0.8,2.9-1.2,4.1-1.3c2.2-0.4,4.5-0.1,7.1,0.7c2.6,0.8,4.8,2.5,6.8,5.1
			c1.9,2.7,3,5.3,3,8c0.1,2.7-0.4,5-1.4,6.9c-0.4,1.2-1.2,2.4-2.4,3.6c-1.2,1.2-3.8,3.3-7.7,6.3c-3.9,2.9-6.6,4.8-8.1,5.7
			c-1.5,0.8-2.9,1.3-4.2,1.3c-2.2,0.4-4.5,0.2-7-0.6c-2.6-0.8-4.9-2.5-6.9-5.1c-1.9-2.6-2.9-5.3-2.9-8c-0.1-2.7,0.3-5,1.3-7
			c0.3-0.6,0.7-1.2,1-1.8c0.3-0.5,0.8-1.2,1.5-1.8C63.9,483.3,66.5,481.2,70.4,478.3z M74.2,483.3c-3.4,2.5-5.6,4.4-6.6,5.5
			c-1,1.1-1.7,2.3-1.9,3.5c-0.3,1.1-0.4,2.2-0.1,3.4c0.1,1.2,0.6,2.4,1.5,3.6c0.9,1.2,1.9,2,3.1,2.5c1.1,0.5,2.1,0.7,3.2,0.7
			c1.2,0.1,2.5-0.2,3.9-0.8c1.4-0.7,3.7-2.3,7.1-4.8c3.4-2.5,5.6-4.4,6.6-5.5c1-1.1,1.6-2.3,1.8-3.5c0.3-1,0.4-2.1,0.3-3.3
			c-0.2-1.2-0.7-2.4-1.6-3.7c-0.9-1.2-1.9-2-3-2.5c-1.1-0.5-2.2-0.8-3.3-0.8c-1.2-0.1-2.5,0.2-3.8,0.8
			C79.9,479.2,77.5,480.8,74.2,483.3z"/>
		<path d="M132.8,557.3c-3.2,2.5-6.5,3.7-9.8,3.7c-3.4-0.1-6.4-1.2-9.2-3.5c-2.5-2.1-4-4.5-4.7-7.1c-0.7-2.6-0.9-4.9-0.4-7.1
			c0.2-0.7,0.4-1.3,0.5-1.9c0.2-0.6,0.6-1.3,1-2.1c0.9-1.5,2.9-4.1,6-7.9c3.2-3.8,5.4-6.3,6.7-7.4c1.3-1.1,2.5-1.8,3.7-2.2
			c2-0.9,4.4-1.2,7.1-1c2.7,0.2,5.3,1.3,7.8,3.4c3,2.6,4.8,5.6,5.2,9c0.4,3.5-0.3,6.8-2.1,10l-5.1-4.2c0.7-1.7,0.9-3.4,0.7-5.2
			c-0.3-1.8-1.3-3.3-2.8-4.6c-1.2-0.9-2.3-1.5-3.5-1.7c-1.2-0.2-2.3-0.2-3.4,0c-1.2,0.2-2.4,0.8-3.5,1.7c-1.2,1-3.2,3.1-5.8,6.3
			c-2.7,3.2-4.4,5.5-5.1,6.9c-0.7,1.3-1.1,2.6-1.1,3.8c-0.1,1.1,0.2,2.2,0.6,3.3c0.4,1.2,1.2,2.2,2.3,3.2c2.7,2.3,6,2.4,9.8,0.6
			L132.8,557.3z"/>
		<path d="M181.1,552l5.6,2.8l-9.7,19.8l0.1,0.1l25-12.3l6.7,3.3l-19.3,9.3l1.8,29.7l-6.7-3.3l-0.9-23.7l-10,3.9l-5.7,11.7l-5.6-2.8
			L181.1,552z"/>
		<path d="M259.5,605.1l-16.1-3.4l-3.8,18.3l-6.1-1.3l8.8-41.8l6.1,1.3l-3.8,17.9l16.1,3.4l3.8-17.9l6.1,1.3l-8.8,41.8l-6.1-1.3
			L259.5,605.1z"/>
		<path d="M308.2,607.6c-0.2-5-0.1-8.3,0.1-10c0.2-1.7,0.7-3.1,1.2-4.1c0.9-2,2.5-3.8,4.6-5.4c2.1-1.6,4.8-2.5,8.1-2.7
			c3.3-0.1,6.1,0.6,8.3,2.1c2.2,1.5,3.9,3.2,4.9,5.1c0.7,1,1.3,2.4,1.6,4c0.3,1.7,0.5,5,0.7,9.9c0.2,4.9,0.2,8.2,0,9.9
			c-0.2,1.7-0.6,3.1-1.3,4.2c-0.9,2-2.4,3.8-4.5,5.4c-2.1,1.6-4.9,2.6-8.1,2.7c-3.3,0-6-0.7-8.2-2.2c-2.3-1.4-3.9-3.1-5-5
			c-0.3-0.6-0.6-1.2-0.9-1.8c-0.2-0.6-0.5-1.4-0.6-2.3C308.6,615.7,308.4,612.5,308.2,607.6z M314.5,607.4c0.1,4.2,0.4,7,0.7,8.5
			c0.3,1.5,0.9,2.7,1.7,3.6c0.7,0.9,1.6,1.5,2.7,2.1c1.1,0.6,2.4,0.9,3.8,0.8c1.5-0.1,2.8-0.4,3.9-1.1c1-0.6,1.8-1.3,2.4-2.2
			c0.8-0.9,1.3-2.2,1.6-3.7c0.2-1.5,0.3-4.3,0.1-8.6c-0.1-4.2-0.4-7.1-0.7-8.6c-0.4-1.4-1-2.6-1.8-3.5c-0.7-0.9-1.5-1.6-2.6-2.1
			c-1.1-0.5-2.4-0.8-3.9-0.8c-1.5,0.1-2.7,0.4-3.8,1c-1.1,0.6-1.9,1.4-2.5,2.3c-0.8,0.9-1.3,2.1-1.5,3.6
			C314.4,600.3,314.3,603.1,314.5,607.4z"/>
		<path d="M373.6,579.4l6-1.7l9.7,35.3l19.4-5.4l1.6,5.9l-25.5,7L373.6,579.4z"/>
		<path d="M431.9,559.3l5.1-2.9l24.1,18.3l-3.8-29.9l5.1-2.9l21.2,37.1l-5.4,3.1l-13.3-23.1l-0.1,0.1l2.7,22.1l-4.5,2.6l-17.7-13.5
			l-0.1,0.1l13.2,23.1l-5.4,3.1L431.9,559.3z"/>
		<path d="M516.7,546.4l-2.7-26.3c-0.1-1-0.4-1.9-0.7-2.6c-0.4-0.6-0.8-1.1-1.2-1.6c-1.1-1.2-2.4-1.8-3.9-2c-1.6-0.2-3,0.4-4.4,1.6
			c-1.2,1.1-1.8,2.5-1.8,4c-0.1,1.6,0.5,3.1,1.7,4.7l-4.3,4.1c-2.3-2.7-3.5-5.6-3.6-8.8c0-3.1,1.2-5.8,3.4-8
			c2.6-2.4,5.5-3.6,8.7-3.4c3.2,0.1,6,1.4,8.5,3.9c1.9,2,3.1,4.4,3.4,7.2l2.3,21.7l11.4-10.9l4.2,4.4l-17.1,16.3L516.7,546.4z"/>
		<path d="M540.5,483.8c-3.2-2.2-5.1-5-5.5-8.1c-0.5-3,0.2-5.9,1.9-8.4c1.8-2.7,4.2-4.3,7.2-5c3-0.7,6.2,0,9.5,2.2l15.6,10.6
			c3.2,2.3,5,4.9,5.5,8c0.5,3-0.2,5.9-1.9,8.6c-1.8,2.6-4.2,4.2-7.2,4.9c-3.1,0.8-6.3,0.1-9.6-2.1L540.5,483.8z M550.7,469.5
			c-3.6-2.3-6.5-1.9-8.7,1.2c-2.1,3.2-1.4,6,2.2,8.5l15,10.2c3.6,2.4,6.5,2,8.7-1.1c2.1-3.2,1.4-6-2.1-8.5L550.7,469.5z"/>
		<path d="M569.4,421.5l1.9,7.1l-6-2.4l-1.9-7.1l2.2-5.5l39.6,15.9L603,435L569.4,421.5z"/>
		<path d="M608.1,379.3l-27.9-18.7l1.1-6.5l27.9,18.9l1.8-10.7l-12.1-2.1l1-5.8l12.1,2.1l0.6-3.3l5.7,1l-0.6,3.3l6.3,1.1l-1,5.8
			l-6.3-1.1l-2.9,17L608.1,379.3z"/>
	</g>
</g>
<circle cx="604.5" cy="315.1" r="13.5"/>
</svg>
