<?xml version="1.0" encoding="utf-8"?>
<!-- Generator: Adobe Illustrator 18.1.0, SVG Export Plug-In . SVG Version: 6.00 Build 0)  -->
<svg version="1.1" id="Layer_2" xmlns="http://www.w3.org/2000/svg" xmlns:xlink="http://www.w3.org/1999/xlink" x="0px" y="0px"
	 viewBox="0 0 792 792" enable-background="new 0 0 792 792" xml:space="preserve">
<path id="blue-akalla" fill="none" stroke="#293577" stroke-width="2" stroke-miterlimit="10" d="M445,300.9
	c-19-22.6,2.2-22.6-9.3-46.6c-5-10.4-21.4-15.1-34.3-30.9c-7.1-8.7-21.5-26.4-30.5-33.3c-29-22,3.6-45.6,4.7-60
	c0.8-10.2-14.2-30-22.7-35.3c-11.5-7.1-28.1-4.5-34.5-18.5c-9.9-21.9-19.4-3.4-35.3-28.5c-8.4-13.2-14.4-18.2-32.9-18.2"/>
<path id="blue-hjulsta" fill="none" stroke="#293577" stroke-width="2" stroke-miterlimit="10" d="M445,300.9
	c-9.8-7.7-26.7-1.1-37.7-7.7c-4.2-2.5-19-11.7-23.3-19.4c-4.1-7.3-2-14.5-3.9-26.9c-2.1-14.3-6.5-19.1-16.1-28.7
	s-44.9-12.1-50.4-32.1c-8.1-29.5-8.4-38.1-23-49.5c-8.8-6.8-50-23.5-58.2-26.5c-8.3-3-39.1-6.9-39.1-6.9"/>
<path id="blue-kungs" fill="none" stroke="#293577" stroke-width="2" stroke-miterlimit="10" d="M596,370.7
	c-8.8-0.3-27.6-13.2-41.3-7.2c-5.9,2.6-13.9,10.5-30.2,9c-13.3-1.2-22-11.5-24.3-13.3c-25.2-19.9-13.7-4.2-28.5-16
	c-17.7-14.1-4.4-20.8-26.6-42.3"/>
<path id="green-hasselby" fill="none" stroke="#60A444" stroke-width="2" stroke-miterlimit="10" d="M91.4,247.5
	c0-8.8,11.6-20.5,24.7-25.2c6.5-2.3,15.6-4.1,27.2-3.8c18,0.4,18.9,9.7,30.5,19.1c22.9,18.5,20.7,22.3,19.6,33.6
	c-1.6,15.7-3.5,19.9,2.5,26.2c6.8,7.1,12.6,9.1,23.2,10.3c7.6,0.8,17.2,10.2,26.7,15.1c9.2,4.8,24.3-1.3,36.6,0.5
	c11.7,1.7,22,11,29.7,14c10.9,4.3,21.3,5.4,28.3,7.4c6.8,2,20.7,5.6,26.9,8.9c16.7,9,14-0.9,29.7,3c11.4,2.9,34.5-0.2,47,3.7
	c11.8,3.7,18.9,3.6,25.3,3.6c9.1,0,25.9,1.4,31-4.8c5.7-7.1,10.8-18.1,13.3-27.1c3.7-13.1,7.1-10.8,25.9-12.7
	c14-1.4,15.5,3.3,19,9.6c3.2,5.7,7.4,14.2,9.4,20.1c2.8,8.1-1.9,15.6-5.3,19.5c-4.3,5,8.7,23.9,14.1,30.4c3.1,3.7,7.4,9.7,9.6,14.7
	c2.8,6.3,0.1,11.6,2.2,20.7c1.5,6.5,4.3,18.9,6,26.2c2,8.9,9.6,26.2,9.6,35.4"/>
<path id="green-hagsatra" fill="none" stroke="#60A444" stroke-width="2" stroke-miterlimit="10" d="M603.9,495.9
	c0,5-0.1,15.8-6.6,19.4c-4.8,2.7-19.2,4.7-15.6,19.6c1.6,6.6,11.5,10.4,0.8,25.2c-5.7,7.8,1.3,15.9-6.6,22.3
	c-5.3,4.3-12.1,9.3-24.3,12.6c-4.8,1.3-11.2,1.2-12.3,16.9c-0.7,9.4-11.7,19-13.2,26.2c-3.5,16.5-18.2,13.5-30.5,29.1
	c-6.3,7.9-29.9,2.9-32.9-27.6"/>
<path id="green-farsta" fill="none" stroke="#60A444" stroke-width="2" stroke-miterlimit="10" d="M623.6,511.5
	c5.9,8,1.6,13.8,0.8,20.6c-0.8,7,0.7,16.6,2.5,21.8c2.7,7.8,6.5,12,6.7,22.7c0.4,19.2-15.2,26-20.9,32.2c-8.5,9.4-6.8,25.2-6.7,33.6
	c0.1,5-0.2,15.1,1.1,19.9c3.4,13.2,10.7,10.6,13.5,17.9c2.9,7.7,2.2,30.4,9.1,38.7c9.8,11.6,4.9,24.4,17.4,35.9"/>
<path id="green-skarpnack" fill="none" stroke="#60A444" stroke-width="2" stroke-miterlimit="10" d="M623.6,511.5
	c6.1,7,21.6,1.8,28.7,2c21.4,0.5,22,4.1,22.5,14.7c0.5,9.9-4.8,17.2-1.9,27c9.2,31,28.4,22.2,33.6,32.7c4.6,9.2,4.9,30.6,4.9,40.9"
	/>
<path id="green-gullmars" fill="none" stroke="#60A444" stroke-width="2" stroke-miterlimit="10" d="M603.9,495.9
	c0.6,8.5,12.6,6.6,19.7,15.6"/>
<path id="red-morby" fill="none" stroke="#D52029" stroke-width="2" stroke-miterlimit="10" d="M511.6,92.9
	c8.1,12.8,9.3,10.2,10.7,28.8c2.2,27.6-15.5,22.3-9.3,41.3c10.8,33.2,23.2-2,36.1,65.1c11.9,61.4,13,66.6,34.1,79
	c5.1,3,15.8,9.1,19.2,14c5.2,7.4,12.3,27.9-12,32.3"/>
<path id="red-ropsten" fill="none" stroke="#D52029" stroke-width="2" stroke-miterlimit="10" d="M648.2,257.8
	c-0.7,7.7-10.8,10.7-12,19c-1.9,13.1,7.8,20.2,8.5,25c0.9,6.3-14.4,26.7-19,35c-2.9,5.2-11.2,5.2-17.5,8.6c-6.3,3.4-9.2,6.2-17.6,8"
	/>
<path id="red-liljeholmen" fill="none" stroke="#D52029" stroke-width="2" stroke-miterlimit="10" d="M590.5,353.3
	c-5.7,1-10.3-0.7-15.7,1.1c-7.5,2.5-13.4,8.2-16.6,11.4c-1,1-5.8,5.7-4.8,10.2c1,5.2,13.2,18.7,18,25.7c2.2,3.2,6.8,9.6,7.8,13.3
	c3,11.8-7.9,6.8-10.9,6c-7.6-2-20.6-1.3-27.5-0.5c-8.4,0.9-25.2,4.5-32.9,7.8c-9.6,4.1-11.3,14-23,20.7"/>
<path id="red-fruangen" fill="none" stroke="#D52029" stroke-width="2" stroke-miterlimit="10" d="M484.8,449
	c-14.2,8.4-3.1,14.2-22.1,35.8c-5.7,6.5-18.8,11.9-31.3,14.8c-13.5,3.1-30.4,6.6-37.2,11.4c-13,9.1-18.6,10.6-25.3,16
	c-8,6.5-3.7,19.8-3.7,26.5"/>
<path id="red-norsborg" fill="none" stroke="#D52029" stroke-width="2" stroke-miterlimit="10" d="M484.8,449
	c0,0-20.5,14.7-45.2,17.8c-8,1-15.2,1-24.4,3.8c-7,2.1-21.6,3.7-28.9,4.2c-20.7,1.5-29,10.1-37.2,14.4c-15,7.6-22.3,23.8-48.1,24.2
	c-29.8,0.4-18.1,26.7-24.9,39.4c-5.4,9.9-14.8,29.3-29.8,32.6c-8.3,1.8-25.9,2.4-34.4,3.9c-11.8,2.1-18,14.9-21.5,20.5
	c-4.8,7.7,0.2,15.7,9.3,24.9c19.6,20,14.6,55.7-8.7,60.7c-18.1,3.9-26.4-5.3-39.6,8.6c-13.8,14.5-3.1,34.5-32.3,34.5
	c-29.3,0-19.1-15.4-40.4-17.5c-7.6-0.8-25-2.7-31.9-2.6"/>
</svg>
